#!OML:ASF F:\VICON\USERDATA\INSTALL\rory3\rory3.ASF
:FULLY-SPECIFIED
:DEGREES
306
root 1.50493 17.2864 -7.31143 8.18116 -8.50014 4.3307
lowerback -8.47782 1.27358 -1.20913
upperback -4.23088 1.78676 -1.2835
thorax 0.379381 0.894009 -0.489326
lowerneck -15.3408 -2.16895 -7.04354
upperneck 25.9673 -2.52436 4.81539
head 11.0865 -1.26391 2.59784
rclavicle -3.35946e-014 2.5842e-015
rhumerus -41.3534 4.03712 -89.4025
rradius 31.8182
rwrist 3.15627
rhand -26.7423 -46.6809
rfingers 7.12502
rthumb -0.171146 -76.6606
lclavicle -3.35946e-014 2.5842e-015
lhumerus -37.2396 -5.55997 85.7501
lradius 32.599
lwrist 10.088
lhand -33.4162 -21.4807
lfingers 7.12502
lthumb -6.61599 8.3959
rfemur -30.4922 2.77185 15.3656
rtibia 76.6306
rfoot 0.781412 -5.11938
rtoes -20.9293
lfemur -25.4613 -2.40739 -29.961
ltibia 33.6622
lfoot -15.4381 4.715
ltoes 4.31129
307
root 1.50598 17.2712 -7.21757 8.06036 -8.29458 4.43773
lowerback -8.22811 1.11546 -1.3684
upperback -4.13439 1.5853 -1.27274
thorax 0.336916 0.795773 -0.410254
lowerneck -15.3237 -2.07286 -7.02616
upperneck 25.89 -2.40167 4.85371
head 11.045 -1.2012 2.6249
rclavicle -9.31803e-015 -1.19271e-015
rhumerus -41.3237 4.42053 -89.6508
rradius 31.6803
rwrist 1.84945
rhand -24.9324 -48.5346
rfingers 7.12502
rthumb 1.57685 -78.5085
lclavicle -9.31803e-015 -1.19271e-015
lhumerus -36.481 -5.83489 85.7813
lradius 32.587
lwrist 10.1246
lhand -33.1344 -21.8999
lfingers 7.12502
lthumb -6.34394 7.98508
rfemur -31.8736 2.58959 15.4477
rtibia 77.2063
rfoot 0.433562 -5.45233
rtoes -18.6352
lfemur -25.0683 -2.45804 -30.1374
ltibia 33.8127
lfoot -15.8889 4.73966
ltoes 3.68516
308
root 1.50858 17.2534 -7.11826 8.01586 -8.11331 4.58425
lowerback -8.34344 0.997104 -1.49586
upperback -3.9061 1.44557 -1.31378
thorax 0.63435 0.725318 -0.387442
lowerneck -15.3786 -2.09003 -6.84771
upperneck 25.6699 -2.41975 4.69189
head 10.9704 -1.20891 2.5284
rclavicle -1.64494e-014 1.39149e-015
rhumerus -41.0907 4.38584 -89.6181
rradius 31.9948
rwrist 1.71706
rhand -27.5875 -46.8973
rfingers 7.12502
rthumb -0.98751 -76.8748
lclavicle -1.64494e-014 1.39149e-015
lhumerus -35.4021 -6.3693 85.8811
lradius 32.0689
lwrist 9.9246
lhand -33.4862 -23.8457
lfingers 7.12502
lthumb -6.68355 6.02881
rfemur -33.277 2.42687 15.4416
rtibia 77.587
rfoot -0.275809 -5.88722
rtoes -17.675
lfemur -24.7524 -2.44328 -30.3844
ltibia 33.9384
lfoot -16.2865 4.78198
ltoes 2.37642
309
root 1.50885 17.247 -7.00656 8.03168 -8.03454 4.64135
lowerback -7.92606 0.878283 -1.66057
upperback -4.07995 1.28506 -1.28482
thorax 0.220938 0.650155 -0.288409
lowerneck -15.775 -2.10045 -6.67486
upperneck 26.1147 -2.41203 4.48949
head 11.2112 -1.21327 2.43254
rclavicle 6.07536e-015 -1.49089e-014
rhumerus -41.3142 4.24096 -89.4658
rradius 32.4429
rwrist 2.88498
rhand -23.0851 -51.6596
rfingers 7.12502
rthumb 3.36096 -81.6128
lclavicle 6.07536e-015 -1.49089e-014
lhumerus -35.1114 -7.16075 86.1445
lradius 31.8103
lwrist 10.0009
lhand -34.0632 -25.7961
lfingers 7.12502
lthumb -7.24059 4.06001
rfemur -34.6163 2.43646 15.509
rtibia 77.7096
rfoot -1.2421 -6.32337
rtoes -17.3186
lfemur -24.3503 -2.57586 -30.5196
ltibia 33.9356
lfoot -16.5988 4.95595
ltoes 2.23716
310
root 1.49967 17.243 -6.89843 8.07896 -8.10573 4.51373
lowerback -8.35384 0.859961 -1.66892
upperback -3.78462 1.27798 -1.22672
thorax 0.760192 0.643092 -0.213732
lowerneck -15.8764 -2.09184 -6.79681
upperneck 26.0094 -2.40397 4.66331
head 11.1946 -1.198 2.51675
rclavicle -9.82742e-015 -3.18055e-015
rhumerus -40.7477 4.12997 -89.3487
rradius 32.2807
rwrist 3.72003
rhand -25.1547 -48.2467
rfingers 7.12502
rthumb 1.36216 -78.2221
lclavicle -9.82742e-015 -3.18055e-015
lhumerus -34.1217 -7.91426 86.3167
lradius 31.5531
lwrist 9.97895
lhand -34.1379 -28.3313
lfingers 7.12502
lthumb -7.31272 1.52236
rfemur -35.9943 2.7692 15.8309
rtibia 77.6047
rfoot -1.94859 -6.84647
rtoes -16.3259
lfemur -24.0399 -2.72044 -30.3973
ltibia 34.09
lfoot -17.099 5.1302
ltoes 3.61752
311
root 1.5179 17.2288 -6.80204 8.21768 -7.79205 5.36869
lowerback -8.18855 0.597537 -2.38192
upperback -4.1156 0.970152 -1.38661
thorax 0.318957 0.500824 -0.0107504
lowerneck -15.9808 -2.26739 -6.66695
upperneck 26.6132 -2.5479 4.11758
head 11.4479 -1.32393 2.28109
rclavicle -2.85753e-015 3.18055e-015
rhumerus -41.0864 4.60767 -89.4936
rradius 31.9441
rwrist 2.57559
rhand -25.9654 -47.5975
rfingers 7.12502
rthumb 0.57918 -77.5764
lclavicle -2.85753e-015 3.18055e-015
lhumerus -33.9205 -8.12271 86.5466
lradius 31.2592
lwrist 9.64769
lhand -34.0394 -30.1926
lfingers 7.12502
lthumb -7.21764 -0.335657
rfemur -37.5513 2.24038 14.878
rtibia 77.4968
rfoot -2.80673 -6.92584
rtoes -15.2351
lfemur -23.8391 -3.06766 -31.4544
ltibia 34.1535
lfoot -17.5896 5.0452
ltoes 4.45551
312
root 1.49579 17.2119 -6.6945 8.15223 -8.17223 4.63506
lowerback -7.98235 0.726996 -2.03579
upperback -3.94579 1.11276 -1.12951
thorax 0.380769 0.568781 0.0703122
lowerneck -16.8496 -2.38674 -6.40765
upperneck 27.0716 -2.674 3.86832
head 11.8007 -1.38129 2.12872
rclavicle 1.87603e-014 3.1408e-014
rhumerus -40.8539 4.88762 -89.7525
rradius 32.0699
rwrist 0.708549
rhand -27.1259 -47.7672
rfingers 7.12502
rthumb -0.541692 -77.7462
lclavicle 1.87603e-014 3.1408e-014
lhumerus -33.0792 -8.80251 86.6732
lradius 31.2284
lwrist 9.92576
lhand -34.0418 -30.8455
lfingers 7.12502
lthumb -7.21989 -0.988704
rfemur -38.6927 3.31876 15.9122
rtibia 77.0389
rfoot -3.2837 -7.74713
rtoes -13.7723
lfemur -23.4771 -2.80084 -30.6719
ltibia 34.3459
lfoot -17.9908 5.36146
ltoes 4.68257
313
root 1.50109 17.1955 -6.59152 8.20709 -8.12412 5.01476
lowerback -8.11693 0.6221 -2.34322
upperback -3.89765 1.00185 -1.25359
thorax 0.502661 0.51465 0.108203
lowerneck -16.8408 -2.39343 -6.48204
upperneck 27.0924 -2.72697 4.08137
head 11.8142 -1.38605 2.21372
rclavicle -3.81791e-014 -6.55989e-015
rhumerus -40.8564 4.89121 -89.7847
rradius 32.5159
rwrist 0.869824
rhand -27.7149 -47.6438
rfingers 7.12502
rthumb -1.1106 -77.6207
lclavicle -3.81791e-014 -6.55989e-015
lhumerus -32.5636 -9.41394 86.779
lradius 31.7904
lwrist 10.6974
lhand -33.8551 -29.709
lfingers 7.12502
lthumb -7.0397 0.15396
rfemur -40.0473 3.39604 15.4649
rtibia 76.5506
rfoot -4.0356 -8.05111
rtoes -12.2326
lfemur -23.2098 -2.99427 -31.1939
ltibia 34.4119
lfoot -18.3236 5.62274
ltoes 4.64509
